<?xml version="1.0" standalone="no"?>
<!DOCTYPE svg PUBLIC "-//W3C//DTD SVG 20010904//EN"
 "http://www.w3.org/TR/2001/REC-SVG-20010904/DTD/svg10.dtd">
<svg version="1.0" xmlns="http://www.w3.org/2000/svg"
 width="235.000000pt" height="75.000000pt" viewBox="0 0 235.000000 75.000000"
 preserveAspectRatio="xMidYMid meet">

<g transform="translate(0.000000,75.000000) scale(0.100000,-0.100000)"
fill="#000000" stroke="none">
<path d="M1795 739 c-777 -51 -1361 -227 -1604 -483 -29 -32 -54 -56 -56 -54
-17 21 -28 66 -33 135 -6 96 -15 107 -68 78 -33 -18 -34 -20 -34 -80 0 -76 26
-217 47 -259 17 -35 52 -76 64 -76 4 0 25 33 46 72 135 259 499 441 1028 517
212 30 394 41 685 41 l264 0 91 44 c158 78 161 76 -85 74 -118 0 -273 -5 -345
-9z"/>
<path d="M952 310 c-70 -43 -125 -175 -102 -245 15 -46 53 -65 127 -65 76 0
105 8 101 29 -2 11 -19 18 -51 23 -70 10 -108 48 -87 88 10 18 21 20 109 20
110 0 111 1 111 72 0 30 -7 46 -29 69 -26 25 -37 29 -88 29 -40 0 -68 -6 -91
-20z m114 -65 c17 -13 15 -14 -31 -14 -46 0 -48 1 -31 14 11 8 25 15 31 15 6
0 20 -7 31 -15z"/>
<path d="M388 308 c-21 -17 -108 -226 -108 -259 0 -31 17 -49 48 -49 24 0 35
19 103 185 l28 70 1 -100 c0 -128 10 -149 70 -153 l45 -3 76 103 c92 125 101
142 97 176 -3 24 -7 27 -38 27 -31 0 -40 -7 -80 -61 -25 -34 -53 -72 -62 -85
-15 -23 -16 -21 -11 41 6 86 -7 120 -46 120 -18 0 -34 -7 -39 -17 -9 -16 -11
-16 -27 0 -20 20 -36 21 -57 5z"/>
<path d="M787 298 c-30 -46 -97 -218 -97 -246 0 -36 22 -56 52 -48 32 8 121
217 116 273 -3 33 -7 38 -30 41 -19 2 -31 -3 -41 -20z"/>
<path d="M1220 289 c-35 -58 -82 -192 -84 -239 -1 -40 2 -45 22 -48 33 -5 48
12 68 71 39 121 80 175 121 160 29 -11 31 -22 16 -77 -8 -28 -19 -68 -25 -88
-6 -21 -8 -44 -4 -53 7 -18 59 -20 74 -3 19 25 52 151 52 202 0 43 -4 57 -26
77 -22 21 -37 24 -109 28 l-84 3 -21 -33z"/>
</g>
</svg>
